<svg width="12" height="16" viewBox="0 0 12 16" fill="none" xmlns="http://www.w3.org/2000/svg">
<g clip-path="url(#clip0_70_195)">
<path d="M0.4375 2.99351C0.4375 1.34024 1.77774 0 3.43103 0H8.56753C10.2208 0 11.5611 1.34024 11.5611 2.99351C11.5611 4.04037 11.0237 4.96175 10.2097 5.49678C11.0237 6.03184 11.5611 6.95319 11.5611 8.00006C11.5611 9.65334 10.2208 10.9936 8.56753 10.9936H8.50253C7.72747 10.9936 7.02119 10.699 6.48956 10.2157V12.974C6.48956 14.6493 5.11428 16 3.44716 16C1.798 16 0.4375 14.6638 0.4375 13.0065C0.4375 11.9597 0.974828 11.0383 1.78873 10.5033C0.974828 9.96822 0.4375 9.04688 0.4375 8.00006C0.4375 6.95319 0.974875 6.03184 1.78883 5.49678C0.974875 4.96175 0.4375 4.04037 0.4375 2.99351ZM5.509 5.98709H3.43103C2.31929 5.98709 1.41806 6.88834 1.41806 8.00006C1.41806 9.1075 2.31234 10.0061 3.41816 10.013C3.42244 10.013 3.42672 10.013 3.43103 10.013H5.509V5.98709ZM6.48956 8.00006C6.48956 9.11178 7.39078 10.013 8.50253 10.013H8.56753C9.67928 10.013 10.5805 9.11178 10.5805 8.00006C10.5805 6.88834 9.67928 5.98709 8.56753 5.98709H8.50253C7.39078 5.98709 6.48956 6.88834 6.48956 8.00006ZM3.43103 10.9936C3.42672 10.9936 3.42244 10.9936 3.41816 10.9936C2.31234 11.0005 1.41806 11.899 1.41806 13.0065C1.41806 14.1141 2.33133 15.0194 3.44716 15.0194C4.58097 15.0194 5.509 14.0996 5.509 12.974V10.9936H3.43103ZM3.43103 0.980556C2.31929 0.980556 1.41806 1.88179 1.41806 2.99351C1.41806 4.10525 2.31929 5.00647 3.43103 5.00647H5.509V0.980556H3.43103ZM6.48956 5.00647H8.56753C9.67928 5.00647 10.5805 4.10525 10.5805 2.99351C10.5805 1.88179 9.67928 0.980556 8.56753 0.980556H6.48956V5.00647Z" fill="#EDEDED"/>
</g>
<defs>
<clipPath id="clip0_70_195">
<rect width="12" height="16" fill="white"/>
</clipPath>
</defs>
</svg>
