<svg width="11" height="16" viewBox="0 0 11 16" fill="none" xmlns="http://www.w3.org/2000/svg">
<path d="M1 3.61932C1 2.17271 2.08438 1 3.42205 1H7.57795C8.91561 1 10 2.17271 10 3.61932C10 4.53533 9.56521 5.34153 8.90664 5.80968C9.56521 6.27786 10 7.08404 10 8.00006C10 9.44668 8.91561 10.6194 7.57795 10.6194H7.52536C6.89826 10.6194 6.32682 10.3617 5.89668 9.93878V12.3522C5.89668 13.8181 4.78395 15 3.43509 15C2.10077 15 1 13.8309 1 12.3807C1 11.4647 1.43475 10.6586 2.09327 10.1904C1.43475 9.72219 1 8.91602 1 8.00006C1 7.08404 1.43479 6.27786 2.09335 5.80968C1.43479 5.34153 1 4.53533 1 3.61932ZM5.10332 6.23871H3.42205C2.52254 6.23871 1.79336 7.0273 1.79336 8.00006C1.79336 8.96906 2.51692 9.7553 3.41163 9.76137C3.41509 9.76135 3.41856 9.76135 3.42205 9.76135H5.10332V6.23871ZM5.89668 8.00006C5.89668 8.97281 6.62585 9.7614 7.52536 9.7614H7.57795C8.47746 9.7614 9.20663 8.97281 9.20663 8.00006C9.20663 7.0273 8.47746 6.23871 7.57795 6.23871H7.52536C6.62585 6.23871 5.89668 7.0273 5.89668 8.00006ZM3.42205 10.6194C3.41856 10.6194 3.41509 10.6194 3.41163 10.6194C2.51692 10.6254 1.79336 11.4117 1.79336 12.3807C1.79336 13.3499 2.53228 14.142 3.43509 14.142C4.35245 14.142 5.10332 13.3371 5.10332 12.3522V10.6194H3.42205ZM3.42205 1.85799C2.52254 1.85799 1.79336 2.64657 1.79336 3.61932C1.79336 4.59209 2.52254 5.38066 3.42205 5.38066H5.10332V1.85799H3.42205ZM5.89668 5.38066H7.57795C8.47746 5.38066 9.20663 4.59209 9.20663 3.61932C9.20663 2.64657 8.47746 1.85799 7.57795 1.85799H5.89668V5.38066Z" fill="#EDEDED"/>
</svg>
