<svg width="16" height="17" viewBox="0 0 16 17" fill="none" xmlns="http://www.w3.org/2000/svg">
<path fill-rule="evenodd" clip-rule="evenodd" d="M11.6659 10.088C11.4662 9.98868 10.4876 9.51001 10.3054 9.44335C10.1231 9.37735 9.99051 9.34468 9.85721 9.54335C9.72457 9.74068 9.34342 10.1873 9.22753 10.3193C9.11097 10.452 8.99508 10.468 8.79613 10.3693C8.59717 10.2693 7.95543 10.0607 7.19513 9.38601C6.60363 8.86068 6.20371 8.21201 6.08782 8.01335C5.97193 7.81535 6.0751 7.70801 6.17491 7.60935C6.26467 7.52068 6.37386 7.37802 6.47367 7.26268C6.57348 7.14668 6.60631 7.06402 6.67262 6.93135C6.73961 6.79935 6.70612 6.68402 6.65588 6.58468C6.60631 6.48535 6.2084 5.51002 6.04227 5.11335C5.88083 4.72735 5.71671 4.78002 5.5948 4.77335C5.47824 4.76802 5.3456 4.76669 5.21297 4.76669C5.08033 4.76669 4.86463 4.81602 4.68243 5.01469C4.49955 5.21269 3.98576 5.69202 3.98576 6.66735C3.98576 7.64202 4.6985 8.58401 4.79831 8.71668C4.89813 8.84868 6.2017 10.85 8.1986 11.708C8.67421 11.912 9.04465 12.034 9.33337 12.1247C9.81032 12.276 10.2444 12.2547 10.5874 12.2033C10.9692 12.1467 11.765 11.724 11.9311 11.2613C12.0966 10.7987 12.0966 10.402 12.047 10.3193C11.9975 10.2367 11.8648 10.1873 11.6652 10.088H11.6659ZM8.03381 15.0233H8.03113C6.84507 15.0236 5.68079 14.7062 4.66032 14.1047L4.41916 13.962L1.91249 14.6167L2.5817 12.1847L2.42428 11.9353C1.76119 10.8849 1.41028 9.6692 1.4121 8.42868C1.41344 4.79535 4.38366 1.83936 8.03649 1.83936C9.80496 1.83936 11.4676 2.52602 12.7176 3.77136C13.3341 4.38241 13.8228 5.10906 14.1553 5.90928C14.4878 6.7095 14.6576 7.5674 14.6549 8.43335C14.6535 12.0667 11.6833 15.0233 8.03381 15.0233ZM13.6688 2.82536C12.9307 2.08597 12.0525 1.49972 11.0851 1.10056C10.1178 0.701403 9.08038 0.497283 8.03314 0.500027C3.64278 0.500027 0.0683272 4.05669 0.0669875 8.42801C0.0663176 9.82535 0.432739 11.1893 1.13008 12.3913L0 16.5L4.22289 15.3973C5.39107 16.0307 6.70015 16.3626 8.03046 16.3627H8.03381C12.4242 16.3627 15.9986 12.806 16 8.43401C16.0032 7.3922 15.7988 6.36008 15.3987 5.39737C14.9986 4.43466 14.4106 3.56047 13.6688 2.82536Z" fill="white"/>
</svg>
