<svg width="16" height="17" viewBox="0 0 16 17" fill="none" xmlns="http://www.w3.org/2000/svg">
<path d="M4.67147 0.5C5.55053 0.5 6.40406 0.746952 7.13866 1.20231C7.40017 1.17436 7.66348 1.16028 7.9275 1.16028C8.89914 1.16028 9.86127 1.35102 10.7589 1.72162C11.6566 2.09222 12.4723 2.63541 13.1593 3.32019C13.8464 4.00497 14.3914 4.81791 14.7632 5.71262C15.1351 6.60732 15.3264 7.56626 15.3264 8.53468C15.3264 8.87887 15.3023 9.22185 15.2544 9.56118C15.3451 9.72217 15.4264 9.88872 15.4976 10.06C15.7324 10.6251 15.8533 11.2307 15.8533 11.8424C15.8533 12.454 15.7324 13.0597 15.4976 13.6248C15.2627 14.1898 14.9185 14.7033 14.4846 15.1358C14.0506 15.5683 13.5355 15.9114 12.9685 16.1454C12.4016 16.3795 11.7939 16.5 11.1802 16.5C10.3396 16.5 9.52239 16.2742 8.81007 15.8564C8.51779 15.8914 8.22309 15.9091 7.9275 15.9091C6.95586 15.9091 5.99373 15.7183 5.09605 15.3477C4.19837 14.9771 3.38272 14.4339 2.69566 13.7492C2.00861 13.0644 1.46361 12.2514 1.09177 11.3567C0.719944 10.462 0.528564 9.5031 0.528564 8.53468C0.528564 8.17208 0.555394 7.81082 0.608479 7.45376C0.213109 6.75922 0 5.96856 0 5.156C0 3.92115 0.492171 2.73688 1.36824 1.86371C2.24431 0.990541 3.43252 0.5 4.67147 0.5ZM5.11793 7.50958C5.29849 7.81865 5.548 8.08185 5.847 8.27864C6.24316 8.53785 6.66428 8.75672 7.10407 8.93198C7.59581 9.13749 7.97732 9.31171 8.24861 9.45464C8.47801 9.56747 8.68622 9.71902 8.86408 9.90264C8.99867 10.0455 9.07348 10.2344 9.07315 10.4306C9.07894 10.569 9.05168 10.7068 8.99362 10.8326C8.93556 10.9584 8.84837 11.0685 8.73928 11.1538C8.44787 11.3499 8.09923 11.4429 7.74888 11.4178C7.55077 11.4199 7.35306 11.3995 7.15954 11.357C7.0026 11.3226 6.84909 11.274 6.70087 11.212C6.57109 11.1558 6.39385 11.0715 6.16914 10.9592C5.98842 10.8628 5.78726 10.811 5.58247 10.8082C5.39866 10.8007 5.21899 10.8641 5.0806 10.9853C5.01458 11.0481 4.96299 11.1246 4.92938 11.2093C4.89577 11.294 4.88095 11.385 4.88593 11.476C4.8818 11.6485 4.93383 11.8177 5.0342 11.9581C5.15508 12.1113 5.31139 12.2328 5.48967 12.3122C6.187 12.6145 6.94293 12.7575 7.70248 12.7309C8.25521 12.742 8.80534 12.6524 9.32595 12.4664C9.75792 12.313 10.1341 12.0338 10.406 11.6648C10.673 11.275 10.8083 10.81 10.7921 10.3378C10.8025 9.9522 10.7059 9.57121 10.5132 9.23704C10.3174 8.9191 10.0537 8.64844 9.74089 8.44451C9.34487 8.18903 8.92472 7.97306 8.48648 7.79971C8.43964 7.77676 8.39115 7.75733 8.34141 7.74158C7.89234 7.55598 7.55457 7.407 7.32808 7.29464C7.12587 7.19985 6.94275 7.0688 6.78781 6.90798C6.65741 6.77108 6.58548 6.58876 6.58727 6.39971C6.58103 6.25571 6.61356 6.11268 6.68149 5.98556C6.74941 5.85844 6.85023 5.75189 6.97341 5.67704C7.2653 5.50302 7.60128 5.41708 7.94088 5.42958C8.20144 5.42685 8.46119 5.45914 8.71315 5.52558C8.98687 5.60451 9.25473 5.70253 9.51475 5.81891C9.62025 5.86786 9.73499 5.89368 9.85129 5.89464C9.93581 5.89688 10.0198 5.88122 10.0979 5.84868C10.1759 5.81614 10.2462 5.76746 10.3041 5.70584C10.3653 5.63897 10.4127 5.5607 10.4436 5.47551C10.4745 5.39031 10.4884 5.29986 10.4844 5.20931C10.4871 5.03502 10.4262 4.8657 10.3132 4.73304C10.1597 4.57181 9.96934 4.45028 9.75849 4.37891C9.52887 4.29459 9.29143 4.23331 9.04969 4.19598C8.71194 4.14057 8.37006 4.11434 8.02781 4.11758C7.50472 4.11448 6.98504 4.20199 6.4918 4.37624C6.0383 4.52934 5.63346 4.79985 5.31847 5.16024C5.01537 5.51912 4.85512 5.97708 4.86833 6.44664C4.85757 6.81664 4.94361 7.18304 5.11793 7.50958Z" fill="white"/>
</svg>
