<svg width="16" height="17" viewBox="0 0 16 17" fill="none" xmlns="http://www.w3.org/2000/svg">
<path d="M8.00075 0.5C5.82806 0.5 5.55539 0.5095 4.70205 0.548334C3.85037 0.587334 3.26903 0.722169 2.76036 0.920004C2.23419 1.12434 1.78785 1.39768 1.34318 1.84251C0.898176 2.28719 0.62484 2.73352 0.419838 3.25953C0.221502 3.76837 0.0865008 4.34987 0.0481671 5.20122C0.01 6.05456 0 6.32739 0 8.50008C0 10.6728 0.00966692 10.9446 0.048334 11.798C0.0875011 12.6496 0.222336 13.231 0.420004 13.7396C0.624507 14.2658 0.897843 14.7121 1.34268 15.1568C1.78719 15.6018 2.23352 15.8758 2.75936 16.0802C3.26837 16.278 3.84987 16.4128 4.70138 16.4518C5.55472 16.4907 5.82723 16.5002 7.99975 16.5002C10.1726 16.5002 10.4444 16.4907 11.2978 16.4518C12.1495 16.4128 12.7315 16.278 13.2405 16.0802C13.7665 15.8758 14.2121 15.6018 14.6567 15.1568C15.1017 14.7121 15.375 14.2658 15.58 13.7398C15.7767 13.231 15.9117 12.6495 15.9517 11.7981C15.99 10.9448 16 10.6728 16 8.50008C16 6.32739 15.99 6.05472 15.9517 5.20138C15.9117 4.34971 15.7767 3.76837 15.58 3.2597C15.375 2.73352 15.1017 2.28719 14.6567 1.84251C14.2116 1.39751 13.7666 1.12417 13.24 0.920004C12.73 0.722169 12.1483 0.587334 11.2966 0.548334C10.4433 0.5095 10.1716 0.5 7.99825 0.5H8.00075ZM7.28308 1.94168C7.49608 1.94135 7.73375 1.94168 8.00075 1.94168C10.1368 1.94168 10.3899 1.94935 11.2335 1.98768C12.0135 2.02335 12.4368 2.15368 12.7188 2.26319C13.0921 2.40819 13.3583 2.58152 13.6381 2.86152C13.9181 3.14153 14.0915 3.4082 14.2368 3.78153C14.3463 4.0632 14.4768 4.48654 14.5123 5.26655C14.5507 6.10989 14.559 6.36323 14.559 8.49825C14.559 10.6333 14.5507 10.8866 14.5123 11.7299C14.4767 12.51 14.3463 12.9333 14.2368 13.215C14.0918 13.5883 13.9181 13.8541 13.6381 14.134C13.3581 14.414 13.0923 14.5873 12.7188 14.7323C12.4371 14.8423 12.0135 14.9723 11.2335 15.008C10.3901 15.0463 10.1368 15.0547 8.00075 15.0547C5.86456 15.0547 5.61139 15.0463 4.76805 15.008C3.98804 14.972 3.5647 14.8416 3.28253 14.7321C2.9092 14.5871 2.64253 14.4138 2.36252 14.1338C2.08252 13.8538 1.90919 13.5878 1.76385 13.2143C1.65435 12.9326 1.52385 12.5093 1.48835 11.7293C1.45002 10.8859 1.44235 10.6326 1.44235 8.49625C1.44235 6.35989 1.45002 6.10789 1.48835 5.26455C1.52402 4.48454 1.65435 4.0612 1.76385 3.7792C1.90885 3.40586 2.08252 3.13919 2.36252 2.85919C2.64253 2.57919 2.9092 2.40585 3.28253 2.26052C3.56454 2.15052 3.98804 2.02052 4.76805 1.98468C5.50606 1.95135 5.79206 1.94135 7.28308 1.93968V1.94168ZM12.2711 3.27003C11.7411 3.27003 11.3111 3.69953 11.3111 4.22971C11.3111 4.75971 11.7411 5.18972 12.2711 5.18972C12.8011 5.18972 13.2311 4.75971 13.2311 4.22971C13.2311 3.6997 12.8011 3.2697 12.2711 3.2697V3.27003ZM8.00075 4.39171C5.73189 4.39171 3.89237 6.23123 3.89237 8.50008C3.89237 10.7689 5.73189 12.6076 8.00075 12.6076C10.2696 12.6076 12.1085 10.7689 12.1085 8.50008C12.1085 6.23123 10.2694 4.39171 8.00058 4.39171H8.00075ZM8.00075 5.83339C9.47343 5.83339 10.6674 7.02723 10.6674 8.50008C10.6674 9.97276 9.47343 11.1668 8.00075 11.1668C6.5279 11.1668 5.33406 9.97276 5.33406 8.50008C5.33406 7.02723 6.5279 5.83339 8.00075 5.83339Z" fill="#EDEDED"/>
</svg>
