<svg width="16" height="17" viewBox="0 0 16 17" fill="none" xmlns="http://www.w3.org/2000/svg">
<path fill-rule="evenodd" clip-rule="evenodd" d="M8 1.5C6.34315 1.5 5 2.84315 5 4.5C5 6.15685 6.34315 7.5 8 7.5C9.65685 7.5 11 6.15685 11 4.5C11 2.84315 9.65685 1.5 8 1.5ZM4 4.5C4 2.29086 5.79086 0.5 8 0.5C10.2091 0.5 12 2.29086 12 4.5C12 6.53981 10.4732 8.223 8.5 8.46905V14C8.5 14.2761 8.27614 14.5 8 14.5C7.72386 14.5 7.5 14.2761 7.5 14V8.46905C5.52684 8.223 4 6.53981 4 4.5ZM6.49328 13.0742C6.53841 13.3467 6.35414 13.6041 6.08171 13.6492C5.37026 13.7671 4.80258 13.9439 4.42743 14.1415C4.23962 14.2405 4.1222 14.3332 4.05719 14.4069C4.02598 14.4422 4.01158 14.4679 4.00527 14.4824C4.00219 14.4895 4.00098 14.4941 4.00049 14.4963C4.00003 14.4984 4 14.5 4 14.5C4 14.5 3.99995 14.5025 4.00153 14.5077C4.00322 14.5132 4.00741 14.5243 4.01754 14.5407C4.03876 14.5753 4.08204 14.6273 4.16312 14.6912C4.32821 14.8213 4.59808 14.9603 4.97613 15.0863C5.72701 15.3366 6.79615 15.5 8 15.5C9.20386 15.5 10.273 15.3366 11.0239 15.0863C11.4019 14.9603 11.6718 14.8213 11.8369 14.6912C11.918 14.6273 11.9612 14.5753 11.9825 14.5407C11.9926 14.5243 11.9968 14.5132 11.9985 14.5077C12 14.5026 12 14.5001 12 14.5001C12 14.5001 12 14.4984 11.9995 14.4963C11.999 14.4941 11.9978 14.4895 11.9947 14.4824C11.9884 14.4679 11.974 14.4422 11.9428 14.4069C11.8778 14.3332 11.7604 14.2405 11.5726 14.1415C11.1974 13.9439 10.6297 13.7671 9.91829 13.6492C9.64586 13.6041 9.46159 13.3467 9.50672 13.0742C9.55185 12.8018 9.80928 12.6175 10.0817 12.6627C10.852 12.7903 11.5343 12.991 12.0387 13.2568C12.5009 13.5003 13 13.9014 13 14.5C13 14.926 12.7406 15.2522 12.4559 15.4766C12.1655 15.7054 11.7764 15.8896 11.3401 16.035C10.4623 16.3276 9.28143 16.5 8 16.5C6.71857 16.5 5.53771 16.3276 4.65991 16.035C4.22362 15.8896 3.83448 15.7054 3.54415 15.4766C3.25945 15.2522 3 14.926 3 14.5C3 13.9014 3.49912 13.5003 3.96128 13.2568C4.4657 12.991 5.14802 12.7903 5.91829 12.6627C6.19072 12.6175 6.44815 12.8018 6.49328 13.0742Z" fill="white"/>
</svg>
