<svg width="16" height="11" viewBox="0 0 16 11" fill="none" xmlns="http://www.w3.org/2000/svg">
<path fill-rule="evenodd" clip-rule="evenodd" d="M7.82834 10.0257H8.78468C8.78468 10.0257 9.07348 9.99384 9.22115 9.83496C9.35688 9.68892 9.35254 9.41488 9.35254 9.41488C9.35254 9.41488 9.33384 8.13165 9.92931 7.94268C10.5166 7.75642 11.2705 9.18287 12.0695 9.7314C12.6737 10.1464 13.1329 10.0555 13.1329 10.0555L15.2697 10.0257C15.2697 10.0257 16.3874 9.95671 15.8574 9.0779C15.814 9.00612 15.5486 8.42784 14.2686 7.23971C12.9287 5.99615 13.1083 6.19734 14.7222 4.04629C15.7051 2.7363 16.0979 1.93659 15.9752 1.59409C15.8582 1.26776 15.1352 1.35397 15.1352 1.35397L12.7295 1.36884C12.7295 1.36884 12.551 1.34456 12.4188 1.42366C12.2895 1.50102 12.2065 1.68176 12.2065 1.68176C12.2065 1.68176 11.8256 2.6954 11.318 3.55759C10.2467 5.37662 9.81826 5.47291 9.64315 5.35977C9.23575 5.09649 9.33755 4.3023 9.33755 3.73793C9.33755 1.97502 9.60495 1.23999 8.81685 1.04972C8.55537 0.986621 8.36274 0.944872 7.69391 0.938055C6.83544 0.929322 6.10903 0.940703 5.69763 1.14224C5.42392 1.27627 5.21275 1.57488 5.34144 1.59206C5.50049 1.61325 5.86051 1.68925 6.05139 1.94899C6.298 2.2845 6.28938 3.03767 6.28938 3.03767C6.28938 3.03767 6.43108 5.11289 5.95854 5.37059C5.6343 5.54739 5.18943 5.18647 4.23433 3.53612C3.74506 2.69078 3.37552 1.75624 3.37552 1.75624C3.37552 1.75624 3.30436 1.58164 3.17726 1.48817C3.02311 1.37492 2.80772 1.33904 2.80772 1.33904L0.5215 1.35397C0.5215 1.35397 0.178381 1.36354 0.0522889 1.51279C-0.0598865 1.64564 0.0433314 1.92008 0.0433314 1.92008C0.0433314 1.92008 1.83307 6.10748 3.85978 8.21768C5.7183 10.1527 7.82834 10.0257 7.82834 10.0257Z" fill="white"/>
</svg>
