<svg width="16" height="17" viewBox="0 0 16 17" fill="none" xmlns="http://www.w3.org/2000/svg">
<path d="M3.65387 1.82849C3.40343 1.50649 2.92745 1.47686 2.639 1.76531L1.60508 2.79923C1.1216 3.28271 0.94387 3.96766 1.1551 4.56847C2.00338 6.98124 3.39215 9.24671 5.32272 11.1773C7.25329 13.1078 9.51876 14.4966 11.9315 15.3449C12.5323 15.5561 13.2173 15.3784 13.7008 14.8949L14.7347 13.861C15.0231 13.5726 14.9935 13.0966 14.6715 12.8461L12.3653 11.0524C12.2008 10.9245 11.9866 10.8793 11.7845 10.9298L9.59541 11.4771C9.00082 11.6257 8.37183 11.4515 7.93845 11.0181L5.48187 8.56155C5.04849 8.12817 4.87427 7.49919 5.02292 6.90459L5.57019 4.71553C5.62073 4.51336 5.57552 4.29918 5.44758 4.13468L3.65387 1.82849ZM1.88477 1.01108C2.62689 0.268961 3.8515 0.345203 4.49583 1.17363L6.28954 3.47983C6.6187 3.90304 6.73502 4.45409 6.60498 4.97423L6.05772 7.16329C5.99994 7.3944 6.06766 7.63888 6.2361 7.80732L8.69268 10.2639C8.86113 10.4323 9.1056 10.5001 9.33671 10.4423L11.5258 9.89502C12.0459 9.76499 12.597 9.8813 13.0202 10.2105L15.3264 12.0042C16.1548 12.6485 16.231 13.8731 15.4889 14.6152L14.455 15.6492C13.7153 16.3889 12.6089 16.7137 11.5778 16.3512C9.01754 15.4511 6.61438 13.9774 4.56849 11.9315C2.5226 9.88562 1.04895 7.48246 0.148838 4.92225C-0.213682 3.89112 0.11113 2.78472 0.85085 2.045L1.88477 1.01108Z" fill="white"/>
</svg>
