<svg width="16" height="17" viewBox="0 0 16 17" fill="none" xmlns="http://www.w3.org/2000/svg">
<path d="M6.5 15V11.4947C6.5 11.25 6.75 11 7 11H9C9.25 11 9.5 11.25 9.5 11.5V15C9.5 15.2761 9.72386 15.5 10 15.5H14C14.2761 15.5 14.5 15.2761 14.5 15V8C14.5 7.86739 14.4473 7.74021 14.3536 7.64645L13 6.29289V3C13 2.72386 12.7761 2.5 12.5 2.5H11.5C11.2239 2.5 11 2.72386 11 3V4.29289L8.35355 1.64645C8.15829 1.45118 7.84171 1.45118 7.64645 1.64645L1.64645 7.64645C1.55268 7.74021 1.5 7.86739 1.5 8V15C1.5 15.2761 1.72386 15.5 2 15.5H6C6.27614 15.5 6.5 15.2761 6.5 15Z" fill="#EDEDED"/>
</svg>
