<svg width="16" height="17" viewBox="0 0 16 17" fill="none" xmlns="http://www.w3.org/2000/svg">
<path d="M1 0.5L0 1.5L2.20088 4.58124C2.3886 4.84403 2.69167 5 3.01462 5H3.08579C3.351 5 3.60536 5.10536 3.79289 5.29289L6.46789 7.96789L3.85099 10.6224C3.58121 10.5428 3.2956 10.5 3 10.5C1.34315 10.5 0 11.8431 0 13.5C0 15.1569 1.34315 16.5 3 16.5C4.65685 16.5 6 15.1569 6 13.5C6 13.2044 5.95725 12.9188 5.87759 12.649L8.53212 10.0321L9.5 11L9.19544 11.9137C9.07566 12.273 9.16918 12.6692 9.43702 12.937L12.7071 16.2071C12.9024 16.4024 13.1583 16.5 13.4142 16.5C13.6701 16.5 13.9261 16.4024 14.1213 16.2071L15.7071 14.6213C15.9024 14.4261 16 14.1701 16 13.9142C16 13.6583 15.9024 13.4024 15.7071 13.2071L12.437 9.93702C12.1692 9.66918 11.773 9.57566 11.4137 9.69544L10.5 10L9.53926 9.03926L12.2191 6.39737C12.4681 6.4643 12.7299 6.5 13 6.5C14.6569 6.5 16 5.15685 16 3.5C16 3.23126 15.9647 2.97078 15.8984 2.72294L13.7574 4.86396L12 4.49998L11.636 2.74264L13.7771 0.601615C13.5292 0.535336 13.2687 0.5 13 0.5C11.3431 0.5 10 1.84315 10 3.5C10 3.77012 10.0357 4.03191 10.1026 4.28089L7.46076 6.96075L4.79289 4.29289C4.60536 4.10536 4.5 3.851 4.5 3.58579V3.51462C4.5 3.19167 4.34403 2.8886 4.08124 2.70088L1 0.5ZM10.6464 11.1464C10.8417 10.9512 11.1583 10.9512 11.3536 11.1464L14.2678 14.0607C14.463 14.2559 14.463 14.5725 14.2678 14.7678C14.0725 14.963 13.7559 14.963 13.5607 14.7678L10.6464 11.8536C10.4512 11.6583 10.4512 11.3417 10.6464 11.1464ZM3 11.5L3.47105 11.742L4 11.7679L4.28693 12.213L4.73205 12.5L4.75799 13.0289L5 13.5L4.75799 13.971L4.73205 14.5L4.28693 14.7869L4 15.232L3.47105 15.258L3 15.5L2.52895 15.258L2 15.232L1.71307 14.7869L1.26795 14.5L1.24202 13.971L1 13.5L1.24202 13.0289L1.26795 12.5L1.71307 12.213L2 11.7679L2.52895 11.742L3 11.5Z" fill="#EDEDED"/>
</svg>
