<svg width="16" height="17" viewBox="0 0 16 17" fill="none" xmlns="http://www.w3.org/2000/svg">
<path d="M16 8.5C16 12.9183 12.4183 16.5 8 16.5C3.58172 16.5 0 12.9183 0 8.5C0 4.08172 3.58172 0.5 8 0.5C12.4183 0.5 16 4.08172 16 8.5ZM8.28672 6.40599C7.50861 6.72963 5.95346 7.3995 3.6213 8.41558C3.2426 8.56618 3.04421 8.71351 3.02615 8.85757C2.99563 9.10103 3.30052 9.1969 3.71569 9.32745C3.77216 9.3452 3.83068 9.3636 3.89067 9.3831C4.29913 9.51588 4.84859 9.67121 5.13423 9.67738C5.39334 9.68298 5.68253 9.57616 6.0018 9.35692C8.18081 7.88603 9.30563 7.14258 9.37625 7.12655C9.42607 7.11524 9.49511 7.10102 9.54188 7.1426C9.58866 7.18418 9.58406 7.26291 9.57911 7.28404C9.5489 7.4128 8.35212 8.52543 7.73279 9.10121C7.53971 9.28071 7.40276 9.40804 7.37476 9.43712C7.31204 9.50226 7.24812 9.56388 7.18669 9.6231C6.80722 9.98891 6.52265 10.2632 7.20245 10.7112C7.52913 10.9265 7.79055 11.1045 8.05134 11.2821C8.33616 11.4761 8.62023 11.6695 8.98778 11.9105C9.08142 11.9718 9.17086 12.0356 9.25796 12.0977C9.58942 12.334 9.88721 12.5463 10.2551 12.5124C10.4689 12.4928 10.6897 12.2918 10.8018 11.6923C11.0668 10.2755 11.5878 7.20567 11.7082 5.94069C11.7187 5.82986 11.7055 5.68802 11.6948 5.62576C11.6842 5.56349 11.6619 5.47478 11.581 5.40911C11.4851 5.33133 11.3371 5.31493 11.2709 5.3161C10.9701 5.3214 10.5084 5.48192 8.28672 6.40599Z" fill="white"/>
</svg>
