<svg width="16" height="17" viewBox="0 0 16 17" fill="none" xmlns="http://www.w3.org/2000/svg">
<g clip-path="url(#clip0_84_966)">
<path d="M11.4076 10.9375C10.5514 11.4812 9.37324 11.6969 8.59511 11.7781L9.24824 12.4219L11.6326 14.8062C12.5045 15.7 11.0857 17.0969 10.2045 16.2344C9.60761 15.6281 8.73261 14.7531 7.82011 13.8406L5.43574 16.2312C4.55449 17.0906 3.13574 15.6813 4.01699 14.8031C4.62324 14.1969 5.48886 13.3219 6.40136 12.4187L7.04511 11.775C6.27636 11.6937 5.07949 11.4906 4.21386 10.9344C3.19511 10.2781 2.74824 9.89375 3.14199 9.09062C3.37324 8.63437 4.00761 8.25 4.84824 8.9125C4.84824 8.9125 5.98261 9.81563 7.81386 9.81563C9.64511 9.81563 10.7795 8.9125 10.7795 8.9125C11.6201 8.25313 12.2514 8.63437 12.4857 9.09062C12.8732 9.89375 12.4264 10.2781 11.4076 10.9375ZM3.75761 4.55312C3.75761 2.3125 5.57949 0.5 7.81074 0.5C10.042 0.5 11.8639 2.3125 11.8639 4.55312C11.8639 6.78438 10.042 8.59688 7.81074 8.59688C5.57949 8.59688 3.75761 6.78438 3.75761 4.55312ZM5.82011 4.55312C5.82011 5.65 6.71386 6.54375 7.81074 6.54375C8.90761 6.54375 9.80136 5.65 9.80136 4.55312C9.80136 3.44687 8.90761 2.55312 7.81074 2.55312C6.71386 2.55312 5.82011 3.44687 5.82011 4.55312Z" fill="#EDEDED"/>
</g>
<defs>
<clipPath id="clip0_84_966">
<rect width="16" height="16" fill="white" transform="translate(0 0.5)"/>
</clipPath>
</defs>
</svg>
