<svg width="16" height="17" viewBox="0 0 16 17" fill="none" xmlns="http://www.w3.org/2000/svg">
<path d="M6.875 7.29289V1.70711C6.875 1.44189 6.98036 1.18754 7.16789 1C7.55842 0.609476 8.19158 0.609476 8.58211 1C8.76964 1.18754 8.875 1.44189 8.875 1.70711V2.29289H13.875C14.1898 2.29289 14.4861 2.44109 14.675 2.69289L15.65 3.99289C15.7833 4.17067 15.7833 4.41512 15.65 4.59289L14.675 5.89289C14.4861 6.1447 14.1898 6.29289 13.875 6.29289H8.875V16.2929H6.875V11.2929H1.875C1.56024 11.2929 1.26385 11.1447 1.075 10.8929L0.100001 9.59289C-0.0333335 9.41512 -0.0333335 9.17067 0.100001 8.99289L1.075 7.69289C1.26385 7.44109 1.56024 7.29289 1.875 7.29289H6.875ZM7.875 10.2929V8.29289H1.875L1.125 9.29289L1.875 10.2929H7.875ZM7.875 5.29289H13.875L14.625 4.29289L13.875 3.29289H7.875V5.29289Z" fill="#EDEDED"/>
</svg>
