<svg width="16" height="16" viewBox="0 0 16 16" fill="none" xmlns="http://www.w3.org/2000/svg">
<path d="M1 3C1 1.89688 3.1175 2.00012 4 2.00012L12 2C12.8825 2 15 1.89699 15 3.00012L16 11.0001L14 11V3H2V11.0001H0L1 3ZM0 12.6001C0 12.2689 0.215 12.0001 0.48 12.0001H15.52C15.785 12.0001 16 12.2689 16 12.6001C16 13.9251 15.06 14.0001 14 14.0001H2C0.94 14.0001 0 13.9251 0 12.6001ZM7.025 6.53137L6.25 7.50012L7.025 8.46887C7.26 8.76262 7.26 9.23762 7.025 9.52824C6.79 9.81887 6.41 9.82199 6.1775 9.52824L4.9775 8.02824C4.7425 7.73449 4.7425 7.25949 4.9775 6.96887L6.1775 5.46887C6.4125 5.17512 6.7925 5.17512 7.025 5.46887C7.2575 5.76262 7.26 6.23762 7.025 6.52824V6.53137ZM9.825 5.46887L11.025 6.96887C11.26 7.26262 11.26 7.73762 11.025 8.02824L9.825 9.52824C9.59 9.82199 9.21 9.82199 8.9775 9.52824C8.745 9.23449 8.7425 8.75949 8.9775 8.46887L9.7525 7.50012L8.9775 6.53137C8.7425 6.23762 8.7425 5.76262 8.9775 5.47199C9.2125 5.18137 9.5925 5.17824 9.825 5.47199V5.46887Z" fill="#EDEDED"/>
</svg>
