<svg width="16" height="16" viewBox="0 0 16 16" fill="none" xmlns="http://www.w3.org/2000/svg">
<path d="M3.41314 4.68979C3.38994 4.07664 3.29038 3.60032 3.11445 3.26081C2.93853 2.9213 2.69977 2.75154 2.39819 2.75154C2.19326 2.75154 2.02024 2.82755 1.87911 2.97957C1.73799 3.12652 1.62972 3.33175 1.55433 3.59525C1.48086 3.85875 1.44413 4.15772 1.44413 4.49216C1.44027 4.77086 1.4625 5.01409 1.51083 5.22185C1.56109 5.42961 1.62972 5.6095 1.71672 5.76152C1.80372 5.90847 1.90424 6.03769 2.01831 6.14917C2.13237 6.25558 2.25416 6.34679 2.38369 6.4228L2.91726 6.75724C3.17632 6.90926 3.41411 7.11195 3.63063 7.36532C3.84715 7.61868 4.03468 7.93032 4.1932 8.30024C4.35173 8.67015 4.47449 9.10594 4.56149 9.6076C4.65042 10.1093 4.69585 10.6844 4.69778 11.333C4.69585 12.2857 4.60305 13.1116 4.41939 13.8109C4.23767 14.5051 3.97475 15.0448 3.63063 15.4299C3.28845 15.81 2.8757 16 2.39239 16C1.91294 16 1.49536 15.8074 1.13965 15.4223C0.785863 15.0372 0.509409 14.4671 0.310285 13.7121C0.113095 12.952 0.00966622 12.012 0 10.8922H1.21504C1.22858 11.4141 1.28561 11.8499 1.38613 12.1995C1.4886 12.5441 1.62489 12.8051 1.79502 12.9824C1.96707 13.1547 2.16137 13.2409 2.37789 13.2409C2.59055 13.2409 2.77517 13.1598 2.93176 12.9976C3.09029 12.8355 3.21305 12.61 3.30005 12.3211C3.38704 12.0323 3.43054 11.7004 3.43054 11.3254C3.43054 10.9758 3.39091 10.6819 3.31164 10.4437C3.23432 10.2055 3.12025 10.0029 2.96946 9.83563C2.8206 9.66841 2.63791 9.51639 2.42139 9.37957L1.77472 8.95392C1.27401 8.63468 0.878659 8.13555 0.588672 7.45653C0.298686 6.77751 0.154659 5.86287 0.156593 4.71259C0.154659 3.77007 0.250355 2.94663 0.443679 2.24228C0.638937 1.53793 0.906691 0.988124 1.24694 0.592874C1.58719 0.197625 1.97384 0 2.40689 0C2.84767 0 3.23238 0.197625 3.56103 0.592874C3.89162 0.988124 4.14874 1.53793 4.3324 2.24228C4.51605 2.94663 4.61078 3.76247 4.61658 4.68979H3.41314Z" fill="#EDEDED"/>
<path d="M5.54236 15.7796V0.212827H9.54418V2.92637H6.79801V6.63563H9.33829V9.34917H6.79801V13.066H9.55578V15.7796H5.54236Z" fill="#EDEDED"/>
<path d="M16 7.9962C16 9.69375 15.8772 11.1379 15.6317 12.3287C15.3881 13.5196 15.0556 14.4291 14.6342 15.0575C14.2147 15.6808 13.7429 15.9924 13.219 15.9924C12.6913 15.9924 12.2176 15.6782 11.7981 15.0499C11.3786 14.4215 11.047 13.512 10.8034 12.3211C10.5599 11.1303 10.4381 9.68868 10.4381 7.9962C10.4381 6.29865 10.5599 4.85447 10.8034 3.66366C11.047 2.47284 11.3786 1.5658 11.7981 0.942518C12.2176 0.314173 12.6913 0 13.219 0C13.7429 0 14.2147 0.314173 14.6342 0.942518C15.0556 1.5658 15.3881 2.47284 15.6317 3.66366C15.8772 4.85447 16 6.29865 16 7.9962ZM14.727 7.9962C14.727 6.8966 14.6641 5.96928 14.5385 5.21425C14.4147 4.45922 14.2398 3.88662 14.0136 3.49644C13.7874 3.10626 13.5225 2.91116 13.219 2.91116C12.9155 2.91116 12.6507 3.10626 12.4245 3.49644C12.1983 3.88662 12.0224 4.45922 11.8967 5.21425C11.773 5.96928 11.7111 6.8966 11.7111 7.9962C11.7111 9.0958 11.773 10.0231 11.8967 10.7781C12.0224 11.5332 12.1983 12.1058 12.4245 12.496C12.6507 12.8861 12.9155 13.0812 13.219 13.0812C13.5225 13.0812 13.7874 12.8861 14.0136 12.496C14.2398 12.1058 14.4147 11.5332 14.5385 10.7781C14.6641 10.0231 14.727 9.0958 14.727 7.9962Z" fill="#EDEDED"/>
</svg>
