<svg width="16" height="16" viewBox="0 0 16 16" fill="none" xmlns="http://www.w3.org/2000/svg">
<g clip-path="url(#clip0_73_217)">
<path d="M1.92813 5.29375L5.1 13.9812C2.88125 12.9062 1.35312 10.6312 1.35312 8C1.35312 7.03438 1.55938 6.12187 1.92813 5.29375ZM12.4875 7.66563C12.4875 6.84375 12.1938 6.275 11.9406 5.83125C11.6031 5.28438 11.2875 4.81875 11.2875 4.27187C11.2875 3.65937 11.75 3.09063 12.4031 3.09063C12.4312 3.09063 12.4594 3.09375 12.4906 3.09687C11.3063 2.0125 9.73125 1.35 8 1.35C5.67812 1.35 3.63437 2.54063 2.44375 4.34688C2.6 4.35313 2.74688 4.35625 2.87188 4.35625C3.56563 4.35625 4.64375 4.27187 4.64375 4.27187C5.00313 4.25 5.04375 4.77812 4.6875 4.81875C4.6875 4.81875 4.32812 4.85937 3.92812 4.88125L6.35 12.0813L7.80625 7.71875L6.77187 4.88125C6.4125 4.85937 6.075 4.81875 6.075 4.81875C5.71562 4.79687 5.75937 4.25 6.11562 4.27187C6.11562 4.27187 7.2125 4.35625 7.86562 4.35625C8.55937 4.35625 9.6375 4.27187 9.6375 4.27187C9.99687 4.25 10.0375 4.77812 9.68125 4.81875C9.68125 4.81875 9.32188 4.85937 8.92188 4.88125L11.325 12.0281L11.9875 9.8125C12.2688 8.89375 12.4875 8.23438 12.4875 7.66563ZM8.11563 8.58125L6.12187 14.3781C6.71875 14.5531 7.34688 14.65 8 14.65C8.775 14.65 9.51563 14.5156 10.2063 14.2719C10.1875 14.2438 10.1719 14.2125 10.1594 14.1812L8.11563 8.58125ZM13.8344 4.80937C13.8625 5.02187 13.8781 5.24688 13.8781 5.49375C13.8781 6.16875 13.7531 6.925 13.3719 7.875L11.3406 13.7469C13.3187 12.5937 14.6469 10.4531 14.6469 8C14.6469 6.84375 14.3531 5.75625 13.8344 4.80937ZM15.75 8C15.75 12.275 12.2719 15.75 8 15.75C3.725 15.75 0.25 12.2719 0.25 8C0.25 3.725 3.725 0.25 8 0.25C12.2719 0.25 15.75 3.725 15.75 8ZM15.3938 8C15.3938 3.92188 12.075 0.60625 8 0.60625C3.92188 0.60625 0.60625 3.92188 0.60625 8C0.60625 12.0781 3.925 15.3938 8 15.3938C12.0781 15.3938 15.3938 12.0781 15.3938 8Z" fill="#EEEFF1"/>
</g>
<defs>
<clipPath id="clip0_73_217">
<rect width="16" height="16" fill="white"/>
</clipPath>
</defs>
</svg>
