<svg width="26" height="26" viewBox="0 0 26 26" fill="none" xmlns="http://www.w3.org/2000/svg">
<path d="M13 0C5.82075 0 0 5.82075 0 13C0 20.1793 5.82075 26 13 26C20.1793 26 26 20.1793 26 13C26 5.82075 20.1793 0 13 0ZM19.3852 8.90608L17.251 18.9594C17.0939 19.6723 16.6693 19.8456 16.0767 19.5098L12.8267 17.1156L11.2602 18.6258C11.1834 18.7251 11.0849 18.8056 10.9723 18.861C10.8596 18.9164 10.7357 18.9452 10.6102 18.9453H10.6047L10.8355 15.6368L16.8588 10.1963C17.1188 9.96558 16.8003 9.8345 16.4548 10.0653L9.01333 14.7518L5.80667 13.7508C5.11333 13.5308 5.09383 13.0574 5.95292 12.7173L18.4828 7.88775C19.0656 7.67542 19.5726 8.02642 19.3841 8.90717L19.3852 8.90608Z" fill="#E4E4E4"/>
</svg>
