<svg width="26" height="26" viewBox="0 0 26 26" fill="none" xmlns="http://www.w3.org/2000/svg">
<path fill-rule="evenodd" clip-rule="evenodd" d="M21.9936 0H4.0064C1.79374 0 0 1.79374 0 4.0064V21.9936C0 24.2062 1.79374 26 4.0064 26H21.9936C24.2062 26 26 24.2062 26 21.9936V4.0064C26 1.79374 24.2062 0 21.9936 0ZM13.8436 18.2006H12.7801C12.7801 18.2006 10.4335 18.3418 8.36665 16.1899C6.11276 13.8432 4.12241 9.18639 4.12241 9.18639C4.12241 9.18639 4.00762 8.88119 4.13237 8.73345C4.27259 8.56747 4.65418 8.55682 4.65418 8.55682L7.19666 8.54022C7.19666 8.54022 7.4362 8.58013 7.60763 8.70607C7.74898 8.81002 7.82812 9.00419 7.82812 9.00419C7.82812 9.00419 8.23908 10.0435 8.78319 10.9836C9.84535 12.8189 10.3401 13.2203 10.7007 13.0237C11.2262 12.7371 11.0686 10.4293 11.0686 10.4293C11.0686 10.4293 11.0782 9.59166 10.8039 9.21854C10.5917 8.92969 10.1913 8.84517 10.0144 8.82161C9.87129 8.8025 10.1061 8.47042 10.4105 8.32135C10.868 8.09723 11.6759 8.08457 12.6306 8.09429C13.3744 8.10187 13.5886 8.1483 13.8794 8.21847C14.5542 8.38139 14.5332 8.90344 14.4878 10.0299C14.4742 10.3664 14.4585 10.757 14.4585 11.208C14.4585 11.3096 14.4555 11.4179 14.4524 11.5292C14.4366 12.1061 14.4186 12.7662 14.7983 13.0117C14.993 13.1375 15.4695 13.0304 16.6608 11.0075C17.2254 10.0486 17.649 8.92136 17.649 8.92136C17.649 8.92136 17.7413 8.72035 17.8851 8.63433C18.0321 8.54636 18.2306 8.57336 18.2306 8.57336L20.906 8.55682C20.906 8.55682 21.71 8.46095 21.8401 8.82386C21.9766 9.20475 21.5397 10.0941 20.4467 11.5509C19.4086 12.9345 18.9041 13.443 18.9515 13.8934C18.9861 14.2218 19.314 14.5192 19.9422 15.1023C21.2593 16.3248 21.6104 16.9667 21.6938 17.1191C21.7005 17.1315 21.7055 17.1406 21.7091 17.1466C22.2985 18.1239 21.0555 18.2006 21.0555 18.2006L18.6793 18.2338C18.6793 18.2338 18.1686 18.3348 17.4966 17.8733C17.1453 17.6321 16.8018 17.2383 16.4745 16.8631C15.974 16.2892 15.5114 15.7588 15.1165 15.8841C14.4543 16.0942 14.4751 17.5213 14.4751 17.5213C14.4751 17.5213 14.48 17.8261 14.329 17.9885C14.1648 18.1652 13.8436 18.2006 13.8436 18.2006Z" fill="#E4E4E4"/>
</svg>
